{"title":"Dogma [1999] DVDRip x264","uid":12940449,"size":930400878,"categoryP":"video","categoryS":"movies","magnet":"?xt=urn:btih:155995b18889feacdacc44bf96a3ce06b31a105f&amp;dn=Dogma+%5B1999%5D+DVDRip+x264&amp;tr=udp%3A%2F%2Ftracker.leechers-paradise.org%3A6969&amp;tr=udp%3A%2F%2Fzer0day.ch%3A1337&amp;tr=udp%3A%2F%2Fopen.demonii.com%3A1337&amp;tr=udp%3A%2F%2Ftracker.coppersurfer.tk%3A6969&amp;tr=udp%3A%2F%2Fexodus.desync.com%3A6969","seeders":0,"leechers":0,"uploader":null,"files":1,"time":1449626446,"description":"Format : MPEG-4\r\nFormat profile : Base Media / Version 2\r\nCodec ID : mp42\r\nFile size : 887 MiB\r\nDuration : 2h 8mn\r\nOverall bit rate mode : Variable\r\nOverall bit rate : 968 Kbps\r\nEncoded date : UTC 2036-02-06 06:28:16\r\nTagged date : UTC 2036-02-06 06:28:16\r\nWriting application : HandBrake 0.10.2 2015060900\r\n\r\nVideo\r\nID : 1\r\nFormat : AVC\r\nFormat/Info : Advanced Video Codec\r\nFormat profile :   \r\nFormat settings, CABAC : Yes\r\nFormat settings, ReFrames : 4 frames\r\nCodec ID : avc1\r\nCodec ID/Info : Advanced Video Coding\r\nDuration : 2h 8mn\r\nBit rate : 800 Kbps\r\nWidth : 720 pixels\r\nHeight : 480 pixels\r\nDisplay aspect ratio : 16:9\r\nOriginal display aspect ratio : 16:9\r\nFrame rate mode : Variable\r\nFrame rate : 23.976 fps\r\nMinimum frame rate : 19.978 fps\r\nMaximum frame rate : 29.970 fps\r\nColor space : YUV\r\nChroma subsampling : 4:2:0\r\nBit depth : 8 bits\r\nScan type : Progressive\r\nBits/(Pixel*Frame) : 0.097\r\nStream size : 733 MiB (83%)\r\nWriting library : x264 core 142 r2479 dd79a61\r\nEncoding settings : cabac=1 / ref=3 / deblock=1:0:0 / analyse=0x3:0x113 / me=hex / subme=7 / psy=1 / psy_rd=1.00:0.00 / mixed_ref=1 / me_range=16 / chroma_me=1 / trellis=1 / 8x8dct=1 / cqm=0 / deadzone=21,11 / fast_pskip=1 / chroma_qp_offset=-2 / threads=6 / lookahead_threads=1 / sliced_threads=0 / nr=0 / decimate=1 / interlaced=0 / bluray_compat=0 / constrained_intra=0 / bframes=3 / b_pyramid=2 / b_adapt=1 / b_bias=0 / direct=1 / weightb=1 / open_gop=0 / weightp=2 / keyint=240 / keyint_min=24 / scenecut=40 / intra_refresh=0 / rc_lookahead=40 / rc=2pass / mbtree=1 / bitrate=800 / ratetol=1.0 / qcomp=0.60 / qpmin=0 / qpmax=69 / qpstep=4 / cplxblur=20.0 / qblur=0.5 / ip_ratio=1.40 / aq=1:1.00\r\nEncoded date : UTC 2036-02-06 06:28:16\r\nTagged date : UTC 2036-02-06 06:28:16\r\nColor range : Limited\r\nColor primaries : BT.601 NTSC\r\nTransfer characteristics : BT.709\r\nMatrix coefficients : BT.601\r\n\r\nAudio\r\nID : 2\r\nFormat : AAC\r\nFormat/Info : Advanced Audio Codec\r\nFormat profile : LC\r\nCodec ID : 40\r\nDuration : 2h 8mn\r\nBit rate mode : Variable\r\nBit rate : 160 Kbps\r\nChannel(s) : 2 channels\r\nChannel(s)_Original : 6 channels\r\nChannel positions : Front: L C R, Side: L R, LFE\r\nSampling rate : 48.0 KHz\r\nCompression mode : Lossy\r\nStream size : 147 MiB (17%)\r\nTitle : Surround / Surround\r\nLanguage : English\r\nEncoded date : UTC 2036-02-06 06:28:16\r\nTagged date : UTC 2036-02-06 06:28:16\r\n\r\nText\r\nID : 3\r\nFormat : Timed Text\r\nMuxing mode : sbtl\r\nCodec ID : tx3g\r\nDuration : 2h 7mn\r\nBit rate mode : Variable\r\nBit rate : 95 bps\r\nStream size : 88.9 KiB (0%)\r\nLanguage : English\r\nEncoded date : UTC 2036-02-06 06:28:16\r\nTagged date : UTC 2036-02-06 06:28:16\r\n\r\nMenu\r\nID : 4\r\nCodec ID : text\r\nDuration : 2h 8mn\r\nLanguage : English\r\nEncoded date : UTC 2036-02-06 06:28:16\r\nTagged date : UTC 2036-02-06 06:28:16\r\n00:00:00.000 : Chapter 1\r\n00:03:42.422 : Chapter 2\r\n00:06:51.011 : Chapter 3\r\n00:09:51.324 : Chapter 4\r\n00:12:39.692 : Chapter 5\r\n00:14:09.015 : Chapter 6\r\n00:17:57.577 : Chapter 7\r\n00:24:28.701 : Chapter 8\r\n00:29:23.629 : Chapter 9\r\n00:33:44.089 : Chapter 10\r\n00:36:40.298 : Chapter 11\r\n00:41:19.243 : Chapter 12\r\n00:45:18.549 : Chapter 13\r\n00:46:54.245 : Chapter 14\r\n00:54:05.075 : Chapter 15\r\n00:58:10.487 : Chapter 16\r\n01:01:50.640 : Chapter 17\r\n01:05:37.801 : Chapter 18\r\n01:11:48.304 : Chapter 19\r\n01:14:10.713 : Chapter 20\r\n01:17:46.862 : Chapter 21\r\n01:23:54.730 : Chapter 22\r\n01:30:33.128 : Chapter 23\r\n01:33:36.511 : Chapter 24\r\n01:38:13.788 : Chapter 25\r\n01:40:33.861 : Chapter 26\r\n01:50:03.497 : Chapter 27\r\n01:53:53.894 : Chapter 28\r\nBit rate mode : VBR","torrent":{"xt":"urn:btih:155995b18889feacdacc44bf96a3ce06b31a105f","amp;dn":"Dogma+%5B1999%5D+DVDRip+x264","amp;tr":["udp%3A%2F%2Ftracker.leechers-paradise.org%3A6969","udp%3A%2F%2Fzer0day.ch%3A1337","udp%3A%2F%2Fopen.demonii.com%3A1337","udp%3A%2F%2Ftracker.coppersurfer.tk%3A6969","udp%3A%2F%2Fexodus.desync.com%3A6969"],"infoHash":"155995b18889feacdacc44bf96a3ce06b31a105f","infoHashBuffer":{"type":"Buffer","data":[21,89,149,177,136,137,254,172,218,204,68,191,150,163,206,6,179,26,16,95]},"announce":[],"urlList":[]}}